<svg width="32" height="32" viewBox="0 0 32 32" fill="none" xmlns="http://www.w3.org/2000/svg">
<path d="M23 12.054C23 12.3192 22.8946 12.5736 22.7071 12.7611C22.5196 12.9486 22.2652 13.054 22 13.054C21.7348 13.054 21.4804 12.9486 21.2929 12.7611C21.1054 12.5736 21 12.3192 21 12.054C21 11.7888 21.1054 11.5344 21.2929 11.3469C21.4804 11.1594 21.7348 11.054 22 11.054C22.2652 11.054 22.5196 11.1594 22.7071 11.3469C22.8946 11.5344 23 11.7888 23 12.054ZM20 15.054C20.2652 15.054 20.5196 14.9486 20.7071 14.7611C20.8946 14.5736 21 14.3192 21 14.054C21 13.7888 20.8946 13.5344 20.7071 13.3469C20.5196 13.1594 20.2652 13.054 20 13.054C19.7348 13.054 19.4804 13.1594 19.2929 13.3469C19.1054 13.5344 19 13.7888 19 14.054C19 14.3192 19.1054 14.5736 19.2929 14.7611C19.4804 14.9486 19.7348 15.054 20 15.054ZM25 14.054C25 14.3192 24.8946 14.5736 24.7071 14.7611C24.5196 14.9486 24.2652 15.054 24 15.054C23.7348 15.054 23.4804 14.9486 23.2929 14.7611C23.1054 14.5736 23 14.3192 23 14.054C23 13.7888 23.1054 13.5344 23.2929 13.3469C23.4804 13.1594 23.7348 13.054 24 13.054C24.2652 13.054 24.5196 13.1594 24.7071 13.3469C24.8946 13.5344 25 13.7888 25 14.054ZM22 17.054C22.2652 17.054 22.5196 16.9486 22.7071 16.7611C22.8946 16.5736 23 16.3192 23 16.054C23 15.7888 22.8946 15.5344 22.7071 15.3469C22.5196 15.1594 22.2652 15.054 22 15.054C21.7348 15.054 21.4804 15.1594 21.2929 15.3469C21.1054 15.5344 21 15.7888 21 16.054C21 16.3192 21.1054 16.5736 21.2929 16.7611C21.4804 16.9486 21.7348 17.054 22 17.054ZM9 11.054H11V13.054H13V15.054H11V17.054H9V15.054H7V13.054H9V11.054Z" fill="url(#paint0_linear_1_6)"/>
<path d="M6.102 6.52001C6.06784 6.39302 6.05906 6.26054 6.07617 6.13015C6.09328 5.99976 6.13593 5.87403 6.2017 5.76015C6.26746 5.64627 6.35504 5.54648 6.45942 5.46649C6.5638 5.38651 6.68294 5.32789 6.81 5.29401L10.674 4.25801C10.8068 4.22261 10.9455 4.21498 11.0815 4.23559C11.2174 4.25621 11.3476 4.30463 11.464 4.37782C11.5803 4.45102 11.6803 4.54742 11.7578 4.66101C11.8352 4.7746 11.8884 4.90294 11.914 5.03801C13.224 4.88001 14.614 4.80401 16 4.80401C17.44 4.80401 18.886 4.88601 20.24 5.05601C20.2634 4.91889 20.3151 4.78816 20.3919 4.67217C20.4686 4.55619 20.5688 4.45749 20.6858 4.38238C20.8029 4.30728 20.9344 4.25743 21.0718 4.23602C21.2092 4.2146 21.3496 4.22209 21.484 4.25801L25.348 5.29401C25.4954 5.33348 25.6319 5.40617 25.7469 5.50652C25.8619 5.60687 25.9524 5.73222 26.0115 5.87296C26.0705 6.01369 26.0966 6.16608 26.0877 6.31845C26.0788 6.47082 26.0351 6.61913 25.96 6.75201C26.2413 6.93334 26.49 7.13134 26.706 7.34601C27.522 8.16201 28.266 9.44601 28.896 10.89C29.536 12.356 30.094 14.072 30.506 15.822C30.918 17.572 31.186 19.382 31.234 21.034C31.282 22.666 31.116 24.238 30.578 25.454C30.3327 25.9999 29.9211 26.4544 29.4021 26.7525C28.8831 27.0506 28.2832 27.1771 27.688 27.114C26.416 26.98 25.458 26.326 24.662 25.568C24.172 25.104 23.67 24.516 23.184 23.952C22.932 23.656 22.684 23.368 22.448 23.106C20.992 21.498 19.254 20.052 16 20.052C12.746 20.052 11.008 21.498 9.552 23.106C9.314 23.368 9.068 23.656 8.816 23.952C8.33 24.516 7.828 25.102 7.338 25.568C6.542 26.328 5.584 26.98 4.312 27.114C3.71681 27.1771 3.1169 27.0506 2.59789 26.7525C2.07889 26.4544 1.66734 25.9999 1.422 25.454C0.881999 24.238 0.717999 22.664 0.763999 21.034C0.811999 19.382 1.084 17.574 1.494 15.822C1.906 14.072 2.466 12.356 3.104 10.89C3.734 9.44601 4.478 8.16201 5.292 7.34601C5.55296 7.08899 5.84369 6.86407 6.158 6.67601L6.102 6.52001ZM10.174 7.34401C8.42 7.71401 7.236 8.23001 6.708 8.76001C6.156 9.31201 5.534 10.326 4.938 11.69C4.30812 13.1741 3.80759 14.7098 3.442 16.28C3.05901 17.8579 2.83192 19.4697 2.764 21.092C2.72 22.602 2.888 23.828 3.25 24.644C3.32413 24.8029 3.44615 24.9347 3.59895 25.0208C3.75174 25.1069 3.92765 25.143 4.102 25.124C4.756 25.056 5.322 24.726 5.96 24.12C6.384 23.716 6.76 23.274 7.19 22.772C7.456 22.46 7.742 22.126 8.07 21.764C9.722 19.938 11.956 18.054 16 18.054C20.044 18.054 22.278 19.938 23.93 21.764C24.258 22.126 24.544 22.46 24.81 22.772C25.238 23.274 25.616 23.716 26.04 24.12C26.676 24.726 27.242 25.056 27.898 25.126C28.0726 25.1448 28.2486 25.1084 28.4015 25.0219C28.5543 24.9355 28.6762 24.8033 28.75 24.644C29.11 23.828 29.28 22.604 29.236 21.092C29.1681 19.4697 28.941 17.8579 28.558 16.28C28.1924 14.7098 27.6919 13.1741 27.062 11.69C26.466 10.326 25.842 9.31001 25.292 8.76001C24.764 8.23001 23.58 7.71401 21.826 7.34401C20.126 6.98601 18.072 6.80401 16 6.80401C13.928 6.80401 11.874 6.98601 10.174 7.34401Z" fill="url(#paint1_linear_1_6)"/>
<defs>
<linearGradient id="paint0_linear_1_6" x1="16" y1="11.054" x2="16" y2="17.054" gradientUnits="userSpaceOnUse">
<stop stop-color="#1F66BC"/>
<stop offset="1" stop-color="#0E2E5A"/>
</linearGradient>
<linearGradient id="paint1_linear_1_6" x1="15.9993" y1="4.22409" x2="15.9993" y2="27.1299" gradientUnits="userSpaceOnUse">
<stop stop-color="#1F66BC"/>
<stop offset="1" stop-color="#0E2E5A"/>
</linearGradient>
</defs>
</svg>
