<svg width="292" height="61" viewBox="0 0 292 61" fill="none" xmlns="http://www.w3.org/2000/svg">
<path d="M0.48 46V0.239998H38.816C43.552 0.239998 47.2213 1.43466 49.824 3.824C52.4693 6.21333 53.792 9.84 53.792 14.704C53.792 19.568 52.4693 23.1947 49.824 25.584C47.2213 27.9733 43.552 29.168 38.816 29.168H10.72V46H0.48ZM37.6 8.56H10.72V20.784L37.6 20.848C39.4773 20.848 40.9067 20.3787 41.888 19.44C42.912 18.5013 43.424 16.9227 43.424 14.704C43.424 12.4427 42.912 10.864 41.888 9.968C40.9067 9.02933 39.4773 8.56 37.6 8.56ZM59.2075 46V0.239998H68.4875V46H59.2075ZM84.288 46C80.832 46 78.1867 45.1253 76.352 43.376C74.5173 41.6267 73.6 39.1307 73.6 35.888C73.6 32.688 74.5173 30.2133 76.352 28.464C78.1867 26.7147 80.832 25.84 84.288 25.84H108.864V24.304C108.864 21.7013 107.584 20.4 105.024 20.4H77.888V13.04H107.456C111.339 13.04 114.091 13.936 115.712 15.728C117.333 17.4773 118.144 19.952 118.144 23.152V46H84.288ZM85.952 38.64H108.864V33.2H85.952C85.1413 33.2 84.5013 33.456 84.032 33.968C83.6053 34.4373 83.392 35.0773 83.392 35.888C83.392 36.6987 83.6053 37.36 84.032 37.872C84.5013 38.384 85.1413 38.64 85.952 38.64ZM132.632 60.4V53.04H151.96C154.52 53.04 155.8 51.7387 155.8 49.136V46H136.024C132.269 46 129.517 45.0613 127.768 43.184C126.061 41.3067 125.208 38.8747 125.208 35.888V13.04H134.488V34.8C134.488 37.36 135.768 38.64 138.328 38.64H155.479V13.04H165.08V50.288C165.08 53.3173 164.205 55.7493 162.456 57.584C160.706 59.4613 157.976 60.4 154.264 60.4H132.632ZM189.297 46C185.585 46 182.854 45.0827 181.105 43.248C179.356 41.3707 178.481 38.9173 178.481 35.888V20.4H168.945V13.04H178.481V2.928H187.761V13.04H201.457V20.4H187.761V34.736C187.761 37.3387 189.041 38.64 191.601 38.64H203.249V46H189.297ZM208.02 46V13.04H233.236C236.948 13.04 239.679 13.9787 241.428 15.856C243.177 17.6907 244.052 20.1227 244.052 23.152V30H234.644V24.304C234.644 21.744 233.364 20.464 230.804 20.464H217.428V46H208.02ZM257.913 46C254.457 46 251.812 45.1253 249.977 43.376C248.142 41.6267 247.225 39.1307 247.225 35.888C247.225 32.688 248.142 30.2133 249.977 28.464C251.812 26.7147 254.457 25.84 257.913 25.84H282.489V24.304C282.489 21.7013 281.209 20.4 278.649 20.4H251.513V13.04H281.081C284.964 13.04 287.716 13.936 289.337 15.728C290.958 17.4773 291.769 19.952 291.769 23.152V46H257.913ZM259.577 38.64H282.489V33.2H259.577C258.766 33.2 258.126 33.456 257.657 33.968C257.23 34.4373 257.017 35.0773 257.017 35.888C257.017 36.6987 257.23 37.36 257.657 37.872C258.126 38.384 258.766 38.64 259.577 38.64Z" fill="url(#paint0_linear_1_3)"/>
<defs>
<linearGradient id="paint0_linear_1_3" x1="166.5" y1="9.5" x2="153.5" y2="61.5" gradientUnits="userSpaceOnUse">
<stop stop-color="#1842E7"/>
<stop offset="1" stop-color="#0E2E5A"/>
</linearGradient>
</defs>
</svg>
